<svg xmlns="http://www.w3.org/2000/svg" viewBox="0 0 477.59 843.62"><defs><style>.cls-1{isolation:isolate;}.cls-14,.cls-2{fill:#c0c2d4;}.cls-3{fill:#8a939d;}.cls-4{fill:#374045;}.cls-5{fill:#e2e2e2;}.cls-6,.cls-7{fill:#63c191;}.cls-11,.cls-12,.cls-14,.cls-6,.cls-8{mix-blend-mode:multiply;}.cls-11,.cls-12,.cls-6,.cls-8{opacity:0.4;}.cls-8{fill:#4f95d0;}.cls-9{fill:#f0efef;}.cls-10{fill:#3b7f5a;}.cls-11,.cls-13{fill:#63c192;}.cls-12{fill:#336195;}.cls-13{mix-blend-mode:screen;opacity:0.6;}.cls-15{fill:#525e68;}</style></defs><g class="cls-1"><g id="Layer_1" data-name="Layer 1"><path class="cls-2" d="M351.19,806.13a1.57,1.57,0,0,1-.37,0,1.49,1.49,0,0,1-1.08-1.81l130.6-510a1.49,1.49,0,0,1,2.89.73L352.64,805A1.5,1.5,0,0,1,351.19,806.13Z" transform="translate(-53.55 -35.89)"/><path class="cls-2" d="M233.5,806.13a1.49,1.49,0,0,1-1.44-1.12L101.47,295a1.49,1.49,0,0,1,1.07-1.81,1.52,1.52,0,0,1,1.82,1.08L235,804.27a1.48,1.48,0,0,1-1.07,1.81A1.65,1.65,0,0,1,233.5,806.13Z" transform="translate(-53.55 -35.89)"/><path class="cls-2" d="M330.63,806.13h-.15a1.49,1.49,0,0,1-1.34-1.63l9.18-92.89a1.53,1.53,0,0,1,1.63-1.34,1.5,1.5,0,0,1,1.34,1.64l-9.18,92.89A1.48,1.48,0,0,1,330.63,806.13Z" transform="translate(-53.55 -35.89)"/><path class="cls-2" d="M254.07,806.13a1.5,1.5,0,0,1-1.49-1.34l-9.17-92.89a1.48,1.48,0,0,1,1.33-1.64,1.51,1.51,0,0,1,1.63,1.34l9.18,92.89a1.48,1.48,0,0,1-1.33,1.63Z" transform="translate(-53.55 -35.89)"/><path class="cls-3" d="M356.67,808.68a19.39,19.39,0,0,1-6.39-1.07,1.49,1.49,0,1,1,1-2.82c6.07,2.08,12.79.54,20-4.59C417,767.56,473.05,597.61,473.17,445.81c0-6.09-.09-12.24-.27-18.27a1.51,1.51,0,0,1,1.45-1.54,1.46,1.46,0,0,1,1.54,1.45c.18,6.07.26,12.24.26,18.36C476,598.44,419.32,769.58,373,802.64,367.32,806.66,361.86,808.68,356.67,808.68Z" transform="translate(-53.55 -35.89)"/><path class="cls-3" d="M228.06,808.68c-5.18,0-10.64-2-16.29-6-46.35-33.06-103.07-204.2-103.18-356.83q0-7,.15-14a1.38,1.38,0,0,1,1.52-1.46,1.49,1.49,0,0,1,1.46,1.53q-.15,7-.15,13.91c.11,151.8,56.14,321.75,101.94,354.39,7.19,5.13,13.91,6.67,20,4.59a1.49,1.49,0,0,1,1,2.82A19.45,19.45,0,0,1,228.06,808.68Z" transform="translate(-53.55 -35.89)"/><path class="cls-4" d="M377.05,817.15A52.45,52.45,0,0,1,349.56,809a1.49,1.49,0,0,1,1.55-2.55c16.6,10.1,33.83,10.35,51.2.71,57.24-31.79,119.5-175.85,122.59-484.85a1.49,1.49,0,0,1,1.49-1.48,1.5,1.5,0,0,1,1.49,1.51c-3.1,310.28-66.15,455.23-124.12,487.43A54.8,54.8,0,0,1,377.05,817.15Z" transform="translate(-53.55 -35.89)"/><path class="cls-5" d="M531.14,274.72a237.77,237.77,0,0,1-24,104.51L348.94,703.71a15.93,15.93,0,0,1-9.11,8c-3.23,1.08-6.45,2.11-9.79,3a146.15,146.15,0,0,1-37.65,4.89h0a146.15,146.15,0,0,1-37.69-4.89c-3.35-.84-6.57-1.87-9.75-3a15.71,15.71,0,0,1-9.12-8L77.59,379.23A238.83,238.83,0,0,1,253.14,39.11a240.5,240.5,0,0,1,39.21-3.22h0A239.68,239.68,0,0,1,435.15,83.25,238.6,238.6,0,0,1,531.14,274.72Z" transform="translate(-53.55 -35.89)"/><path class="cls-6" d="M157.25,84c-107.83,94.64-99.85,191.6-31,346C183.62,558.75,244.91,691.4,244.91,691.4S48.64,227.5,157.25,84Z" transform="translate(-53.55 -35.89)"/><path class="cls-7" d="M484.6,251.5c0,39.41-6.93,76.76-19.33,109.94L337.9,706a14.44,14.44,0,0,1-7.33,8.43l-.53.24a146,146,0,0,1-37.67,4.91h0c-2.88,0-5.75-.09-8.63-.29a139.41,139.41,0,0,1-21.23-2.79c-2.63-.53-5.22-1.14-7.82-1.83l-.52-.24a14.42,14.42,0,0,1-7.34-8.43L119.42,361.44C107,328.26,100.1,290.91,100.1,251.5c0-64.7,18.72-123.73,49.47-168.25A237.08,237.08,0,0,1,283.7,36.06c2.83-.13,5.75-.17,8.63-.17h0A238,238,0,0,1,435.13,83.25C465.88,127.77,484.6,186.8,484.6,251.5Z" transform="translate(-53.55 -35.89)"/><path class="cls-8" d="M283.7,36.06V719.32a139.41,139.41,0,0,1-21.23-2.79C219.85,425.86,49.79,267.58,246.31,40.31A240.37,240.37,0,0,1,283.7,36.06Z" transform="translate(-53.55 -35.89)"/><path class="cls-9" d="M389.19,248.25c0,38.29-3.48,74.55-9.72,106.79L315.3,710.86a17.42,17.42,0,0,1-2.92,7.37,142.18,142.18,0,0,1-20,1.38h0a142.08,142.08,0,0,1-20-1.38,17.42,17.42,0,0,1-2.92-7.37L205.23,355c-6.24-32.24-9.72-68.5-9.72-106.79,0-99.61,23.69-176.06,57.64-209.16a241.15,241.15,0,0,1,39.18-3.2h0a235.79,235.79,0,0,1,39.13,3.24C365.49,72.15,389.19,148.64,389.19,248.25Z" transform="translate(-53.55 -35.89)"/><path class="cls-10" d="M246.79,706,117.28,359.53A298.41,298.41,0,0,1,106,319.85a326.74,326.74,0,0,1-6.62-82,318,318,0,0,1,14.06-81,271.19,271.19,0,0,1,36.1-73.63,270.62,270.62,0,0,0-34.7,74.06,318,318,0,0,0-13.48,80.63,324.29,324.29,0,0,0,7.08,81.39c5.45,26.79,16.39,52,25.72,77.78Z" transform="translate(-53.55 -35.89)"/><path class="cls-10" d="M435.13,83.25a271.3,271.3,0,0,1,36.09,73.63,318,318,0,0,1,14.06,81,326.74,326.74,0,0,1-6.62,82,296.91,296.91,0,0,1-11.25,39.68L337.9,706,450.5,397.11c9.35-25.77,20.28-51,25.73-77.78a324.29,324.29,0,0,0,7.08-81.39,318,318,0,0,0-13.48-80.63A270.48,270.48,0,0,0,435.13,83.25Z" transform="translate(-53.55 -35.89)"/><path class="cls-10" d="M269.4,710.86s-68-367.88-69.9-382.19-3.28-28.67-4.11-43.06a612.34,612.34,0,0,1,1.19-86.41c.52-7.19,1.52-14.33,2.29-21.5,1.12-7.12,1.93-14.29,3.36-21.36a355,355,0,0,1,10-42.06,237,237,0,0,1,16-40.11c6.6-12.78,14.61-25,24.91-35.08C243,49.35,235.26,61.66,228.89,74.5a236.59,236.59,0,0,0-15.28,40.2,358.36,358.36,0,0,0-9.67,41.94c-1.38,7.05-2.15,14.2-3.22,21.3-.73,7.14-1.68,14.26-2.16,21.43a612.29,612.29,0,0,0-.69,86.09q1.37,21.5,4.34,42.83c1.93,14.22,4.84,28.28,7.36,42.46Z" transform="translate(-53.55 -35.89)"/><path class="cls-10" d="M331.5,39.13c10.32,10.07,18.34,22.28,24.95,35.05a237.89,237.89,0,0,1,16,40.11,355,355,0,0,1,10,42.06c1.42,7.07,2.23,14.24,3.35,21.36.77,7.17,1.77,14.31,2.29,21.5a612.34,612.34,0,0,1,1.19,86.41q-1.24,21.58-4.11,43.05c-1.85,14.32-4.69,28.47-7.14,42.63L315.3,710.86s65.26-368.34,67.19-382.56,3.43-28.51,4.34-42.83a610.78,610.78,0,0,0-.69-86.09c-.48-7.17-1.43-14.29-2.16-21.43-1.07-7.1-1.84-14.25-3.22-21.3a360.35,360.35,0,0,0-9.66-41.94,236.67,236.67,0,0,0-15.3-40.2C349.43,61.68,341.65,49.38,331.5,39.13Z" transform="translate(-53.55 -35.89)"/><path class="cls-11" d="M381.93,636.05l-33,67.66a15.93,15.93,0,0,1-9.11,8c-3.23,1.08-6.45,2.11-9.79,3a146.15,146.15,0,0,1-37.65,4.89h0a146.15,146.15,0,0,1-37.69-4.89c-3.35-.84-6.57-1.87-9.75-3a15.71,15.71,0,0,1-9.12-8L130.41,487.56C229.69,650.25,308.44,658.89,381.93,636.05Z" transform="translate(-53.55 -35.89)"/><path class="cls-12" d="M303,41a.51.51,0,0,0-.5.5v2.41H287.15V41.45a.5.5,0,1,0-1,0V718.16a.5.5,0,0,0,1,0V709.7h15.31v8.46a.5.5,0,0,0,.5.5.5.5,0,0,0,.5-.5V41.45A.5.5,0,0,0,303,41ZM287.15,653.3V635.83h15.31V653.3Zm15.31,1v17.47H287.15V654.3Zm-15.31-19.46V617.36h15.31v17.48Zm0-18.47V598.89h15.31v17.48Zm0-18.47V580.43h15.31V597.9Zm0-18.47V562h15.31v17.47Zm0-18.47V543.49h15.31V561Zm0-18.47V525h15.31v17.47Zm0-18.46V506.55h15.31V524Zm0-18.47V488.08h15.31v17.48Zm0-18.47V469.62h15.31v17.47Zm0-18.47V451.15h15.31v17.47Zm0-18.47V432.68h15.31v17.47Zm0-18.46V414.22h15.31v17.47Zm0-18.47V395.75h15.31v17.47Zm0-18.47V377.28h15.31v17.47Zm0-18.47V358.81h15.31v17.47Zm0-18.46V340.34h15.31v17.48Zm0-18.47V321.87h15.31v17.48Zm0-18.47V303.41h15.31v17.47Zm0-18.47V284.94h15.31v17.47Zm0-18.47V266.47h15.31v17.47Zm0-18.46V248h15.31v17.47Zm0-18.47V229.54h15.31V247Zm0-18.47V211.07h15.31v17.47Zm0-18.47V192.6h15.31v17.47Zm0-18.46V174.13h15.31v17.48Zm0-18.47V155.66h15.31v17.48Zm0-18.47V137.2h15.31v17.47Zm0-18.47V118.73h15.31V136.2Zm0-18.47V100.26h15.31v17.47Zm0-18.46V81.79h15.31V99.27Zm0-18.47V63.32h15.31V80.8Zm0,592h15.31v17.48H287.15Zm15.31-627.9V62.33H287.15V44.86ZM287.15,708.7V691.23h15.31V708.7Z" transform="translate(-53.55 -35.89)"/><path class="cls-13" d="M453.43,182.78c27.28,65.47-14.42,188.8-47.19,65.33-14.83-55.89-87.64,138-146.14,15.21-30.51-64-6.1-136.58,47.28-158.82S426.16,117.3,453.43,182.78Z" transform="translate(-53.55 -35.89)"/><path class="cls-4" d="M531,322.35a4.58,4.58,0,1,1-4.58-4.58A4.58,4.58,0,0,1,531,322.35Z" transform="translate(-53.55 -35.89)"/><path class="cls-4" d="M53.73,322.35a4.58,4.58,0,1,0,4.58-4.58A4.58,4.58,0,0,0,53.73,322.35Z" transform="translate(-53.55 -35.89)"/><path class="cls-3" d="M229.81,821.14l7.79,8.34s-7.7,3.1-5,23.86a4.86,4.86,0,0,0,4.59,4.07h16.15a3.18,3.18,0,0,0,3.13-4.07C251.84,832.58,243,829.48,243,829.48l4.82-8.34Z" transform="translate(-53.55 -35.89)"/><path class="cls-3" d="M354.89,821.14l-7.79,8.34s7.7,3.1,5,23.86a4.84,4.84,0,0,1-4.58,4.07H331.33a3.18,3.18,0,0,1-3.13-4.07c4.66-20.76,13.47-23.86,13.47-23.86l-4.82-8.34Z" transform="translate(-53.55 -35.89)"/><polygon class="cls-4" points="297.66 768.75 277.24 843.62 200.39 843.62 179.97 768.75 297.66 768.75"/><path class="cls-14" d="M338.51,851.17l-7.72,28.33H253.94l-20.42-74.86h14.21C265.36,849.58,305.16,857.14,338.51,851.17Z" transform="translate(-53.55 -35.89)"/><path class="cls-3" d="M321.89,821.14l-6.3,8.34s8.25,3.1,9.21,23.86a3.88,3.88,0,0,1-3.85,4.07H304.8a3.89,3.89,0,0,1-3.86-4.07c1-20.76,9.22-23.86,9.22-23.86l-6.31-8.34Z" transform="translate(-53.55 -35.89)"/><path class="cls-3" d="M262.81,821.14l6.3,8.34s-8.25,3.1-9.22,23.86a3.89,3.89,0,0,0,3.86,4.07H279.9a3.89,3.89,0,0,0,3.86-4.07c-1-20.76-9.22-23.86-9.22-23.86l6.3-8.34Z" transform="translate(-53.55 -35.89)"/><polygon class="cls-15" points="278.72 838.07 277.22 843.62 200.37 843.62 198.87 838.07 278.72 838.07"/><path class="cls-4" d="M207.69,817.15A54.77,54.77,0,0,1,181,809.8C123,777.6,60,632.65,56.86,322.37a1.49,1.49,0,0,1,1.47-1.51,1.51,1.51,0,0,1,1.51,1.48c3.09,309,65.35,453.06,122.59,484.85,17.36,9.64,34.59,9.4,51.19-.71a1.5,1.5,0,0,1,2,.5,1.48,1.48,0,0,1-.5,2A52.42,52.42,0,0,1,207.69,817.15Z" transform="translate(-53.55 -35.89)"/><path class="cls-4" d="M328.77,818.86c-2.53,0-4.93-1.85-7.12-5.53a1.49,1.49,0,0,1,.51-2.05,1.51,1.51,0,0,1,2,.52c1.84,3.09,3.6,4.42,5.24,4,25-6.82,56.27-300.06,57.68-541a1.49,1.49,0,1,1,3,0c-.64,110.07-7.92,242.15-19.48,353.31-7.17,69-22,185.5-40.39,190.53A5.42,5.42,0,0,1,328.77,818.86Z" transform="translate(-53.55 -35.89)"/><path class="cls-4" d="M255.92,818.86a5.82,5.82,0,0,1-1.42-.18c-18.45-4.89-33.24-121.41-40.42-190.42-11.57-111.2-18.85-243.32-19.5-353.44a1.5,1.5,0,1,1,3,0c1.41,241.12,32.68,534.36,57.7,541,1.68.47,3.5-1,5.4-4.3a1.49,1.49,0,0,1,2.59,1.49C261,816.89,258.54,818.86,255.92,818.86Z" transform="translate(-53.55 -35.89)"/><path class="cls-4" d="M300.5,805.14a.5.5,0,0,1-.49-.5V38.22a.5.5,0,1,1,1,0V804.64A.5.5,0,0,1,300.5,805.14Z" transform="translate(-53.55 -35.89)"/><path class="cls-4" d="M284.19,805.14a.5.5,0,0,1-.49-.5V38.22a.5.5,0,1,1,1,0V804.64A.5.5,0,0,1,284.19,805.14Z" transform="translate(-53.55 -35.89)"/><path class="cls-4" d="M300.5,41.62H284.19a.5.5,0,0,1,0-1H300.5a.5.5,0,1,1,0,1Z" transform="translate(-53.55 -35.89)"/><path class="cls-4" d="M300.5,60.09H284.19a.5.5,0,0,1,0-1H300.5a.5.5,0,1,1,0,1Z" transform="translate(-53.55 -35.89)"/><path class="cls-4" d="M300.5,78.56H284.19a.49.49,0,0,1-.49-.5.5.5,0,0,1,.49-.5H300.5a.5.5,0,0,1,.5.5A.5.5,0,0,1,300.5,78.56Z" transform="translate(-53.55 -35.89)"/><path class="cls-4" d="M300.5,97H284.19a.5.5,0,0,1,0-1H300.5a.5.5,0,0,1,0,1Z" transform="translate(-53.55 -35.89)"/><path class="cls-4" d="M300.5,115.5H284.19a.5.5,0,0,1-.49-.5.49.49,0,0,1,.49-.5H300.5a.5.5,0,0,1,.5.5A.5.5,0,0,1,300.5,115.5Z" transform="translate(-53.55 -35.89)"/><path class="cls-4" d="M300.5,134H284.19a.5.5,0,0,1,0-1H300.5a.5.5,0,1,1,0,1Z" transform="translate(-53.55 -35.89)"/><path class="cls-4" d="M300.5,152.43H284.19a.5.5,0,0,1,0-1H300.5a.5.5,0,1,1,0,1Z" transform="translate(-53.55 -35.89)"/><path class="cls-4" d="M300.5,170.9H284.19a.49.49,0,0,1-.49-.5.5.5,0,0,1,.49-.5H300.5a.5.5,0,0,1,.5.5A.5.5,0,0,1,300.5,170.9Z" transform="translate(-53.55 -35.89)"/><path class="cls-4" d="M300.5,189.37H284.19a.5.5,0,0,1,0-1H300.5a.5.5,0,0,1,0,1Z" transform="translate(-53.55 -35.89)"/><path class="cls-4" d="M300.5,207.83H284.19a.5.5,0,0,1,0-1H300.5a.5.5,0,1,1,0,1Z" transform="translate(-53.55 -35.89)"/><path class="cls-4" d="M300.5,226.3H284.19a.5.5,0,0,1,0-1H300.5a.5.5,0,1,1,0,1Z" transform="translate(-53.55 -35.89)"/><path class="cls-4" d="M300.5,244.77H284.19a.5.5,0,0,1,0-1H300.5a.5.5,0,1,1,0,1Z" transform="translate(-53.55 -35.89)"/><path class="cls-4" d="M300.5,263.24H284.19a.49.49,0,0,1-.49-.5.5.5,0,0,1,.49-.5H300.5a.5.5,0,0,1,.5.5A.5.5,0,0,1,300.5,263.24Z" transform="translate(-53.55 -35.89)"/><path class="cls-4" d="M300.5,281.71H284.19a.5.5,0,0,1-.49-.5.49.49,0,0,1,.49-.5H300.5a.5.5,0,0,1,.5.5A.5.5,0,0,1,300.5,281.71Z" transform="translate(-53.55 -35.89)"/><path class="cls-4" d="M300.5,300.17H284.19a.5.5,0,0,1,0-1H300.5a.5.5,0,1,1,0,1Z" transform="translate(-53.55 -35.89)"/><path class="cls-4" d="M300.5,318.64H284.19a.5.5,0,0,1,0-1H300.5a.5.5,0,1,1,0,1Z" transform="translate(-53.55 -35.89)"/><path class="cls-4" d="M300.5,337.11H284.19a.5.5,0,0,1,0-1H300.5a.5.5,0,1,1,0,1Z" transform="translate(-53.55 -35.89)"/><path class="cls-4" d="M300.5,355.58H284.19a.49.49,0,0,1-.49-.5.5.5,0,0,1,.49-.5H300.5a.5.5,0,0,1,.5.5A.5.5,0,0,1,300.5,355.58Z" transform="translate(-53.55 -35.89)"/><path class="cls-4" d="M300.5,374.05H284.19a.5.5,0,0,1-.49-.5.49.49,0,0,1,.49-.5H300.5a.5.5,0,0,1,.5.5A.5.5,0,0,1,300.5,374.05Z" transform="translate(-53.55 -35.89)"/><path class="cls-4" d="M300.5,392.51H284.19a.5.5,0,0,1,0-1H300.5a.5.5,0,1,1,0,1Z" transform="translate(-53.55 -35.89)"/><path class="cls-4" d="M300.5,411H284.19a.5.5,0,0,1,0-1H300.5a.5.5,0,1,1,0,1Z" transform="translate(-53.55 -35.89)"/><path class="cls-4" d="M300.5,429.45H284.19a.49.49,0,0,1-.49-.5.5.5,0,0,1,.49-.5H300.5a.5.5,0,0,1,.5.5A.5.5,0,0,1,300.5,429.45Z" transform="translate(-53.55 -35.89)"/><path class="cls-4" d="M300.5,447.92H284.19a.49.49,0,0,1-.49-.5.5.5,0,0,1,.49-.5H300.5a.5.5,0,0,1,.5.5A.5.5,0,0,1,300.5,447.92Z" transform="translate(-53.55 -35.89)"/><path class="cls-4" d="M300.5,466.39H284.19a.5.5,0,0,1-.49-.5.49.49,0,0,1,.49-.5H300.5a.5.5,0,0,1,.5.5A.5.5,0,0,1,300.5,466.39Z" transform="translate(-53.55 -35.89)"/><path class="cls-4" d="M300.5,484.85H284.19a.5.5,0,0,1,0-1H300.5a.5.5,0,1,1,0,1Z" transform="translate(-53.55 -35.89)"/><path class="cls-4" d="M300.5,503.32H284.19a.5.5,0,0,1,0-1H300.5a.5.5,0,1,1,0,1Z" transform="translate(-53.55 -35.89)"/><path class="cls-4" d="M300.5,521.79H284.19a.49.49,0,0,1-.49-.5.5.5,0,0,1,.49-.5H300.5a.5.5,0,0,1,.5.5A.5.5,0,0,1,300.5,521.79Z" transform="translate(-53.55 -35.89)"/><path class="cls-4" d="M300.5,540.26H284.19a.5.5,0,0,1,0-1H300.5a.5.5,0,0,1,0,1Z" transform="translate(-53.55 -35.89)"/><path class="cls-4" d="M300.5,558.72H284.19a.5.5,0,0,1,0-1H300.5a.5.5,0,1,1,0,1Z" transform="translate(-53.55 -35.89)"/><path class="cls-4" d="M300.5,577.19H284.19a.5.5,0,0,1,0-1H300.5a.5.5,0,1,1,0,1Z" transform="translate(-53.55 -35.89)"/><path class="cls-4" d="M300.5,595.66H284.19a.5.5,0,0,1,0-1H300.5a.5.5,0,1,1,0,1Z" transform="translate(-53.55 -35.89)"/><path class="cls-4" d="M300.5,614.13H284.19a.49.49,0,0,1-.49-.5.5.5,0,0,1,.49-.5H300.5a.5.5,0,0,1,.5.5A.5.5,0,0,1,300.5,614.13Z" transform="translate(-53.55 -35.89)"/><path class="cls-4" d="M300.5,632.6H284.19a.5.5,0,0,1-.49-.5.49.49,0,0,1,.49-.5H300.5a.5.5,0,0,1,.5.5A.5.5,0,0,1,300.5,632.6Z" transform="translate(-53.55 -35.89)"/><path class="cls-4" d="M300.5,651.06H284.19a.5.5,0,0,1,0-1H300.5a.5.5,0,1,1,0,1Z" transform="translate(-53.55 -35.89)"/><path class="cls-4" d="M300.5,669.53H284.19a.5.5,0,0,1,0-1H300.5a.5.5,0,1,1,0,1Z" transform="translate(-53.55 -35.89)"/><path class="cls-4" d="M300.5,688H284.19a.5.5,0,0,1,0-1H300.5a.5.5,0,1,1,0,1Z" transform="translate(-53.55 -35.89)"/><path class="cls-4" d="M300.5,706.47H284.19a.5.5,0,0,1,0-1H300.5a.5.5,0,0,1,0,1Z" transform="translate(-53.55 -35.89)"/><path class="cls-4" d="M300.5,724.94H284.19a.5.5,0,0,1-.49-.5.49.49,0,0,1,.49-.5H300.5a.5.5,0,0,1,.5.5A.5.5,0,0,1,300.5,724.94Z" transform="translate(-53.55 -35.89)"/><path class="cls-4" d="M300.5,743.4H284.19a.5.5,0,0,1,0-1H300.5a.5.5,0,1,1,0,1Z" transform="translate(-53.55 -35.89)"/><path class="cls-4" d="M300.5,761.87H284.19a.5.5,0,0,1,0-1H300.5a.5.5,0,1,1,0,1Z" transform="translate(-53.55 -35.89)"/><path class="cls-4" d="M300.5,780.34H284.19a.49.49,0,0,1-.49-.5.5.5,0,0,1,.49-.5H300.5a.5.5,0,0,1,.5.5A.5.5,0,0,1,300.5,780.34Z" transform="translate(-53.55 -35.89)"/><path class="cls-4" d="M300.5,798.81H284.19a.5.5,0,0,1,0-1H300.5a.5.5,0,0,1,0,1Z" transform="translate(-53.55 -35.89)"/><path class="cls-10" d="M524.68,325.32c-3.68-2-3.51,6.4-19,27-17.94,23.45-22.25,8.44-22.89-21.82-.47-29.73,2.69-32.36-1-34.69-6.92-4.37-7.37,11.26-27.89,28.77-33.77,29-55.7-.08-62.38-45.78a4,4,0,0,0-7.61-1c-16.81,38-50.17,56.36-91.54,56.31s-74.73-18.26-91.54-56.31a4,4,0,0,0-7.62,1C186,326,164,353,130.82,324.6c-18.14-15.48-20.46-29.38-25.77-29.38-8.72,0,0,16.37-4,50.64-1.19,9.83-3.55,22.31-11.75,16.95-9.64-6.55-20.54-25.68-26.63-36.72a1.93,1.93,0,0,0-3.4,1.83c32.46,63.67,50.23,52.84,50-15.31,34.15,46.74,76.16,42.95,89.74-20.86,40.1,69.74,148.63,66.27,186.74,0,13.51,63.49,55.28,68,89.74,20.86-.22,68.95,17.87,78.34,50,15.31A2,2,0,0,0,524.68,325.32Z" transform="translate(-53.55 -35.89)"/><path class="cls-4" d="M527.31,320.66c-3.72-2-3.55,6.4-19.23,27-18.14,23.46-22.5,8.45-23.14-21.82-.48-29.73,2.72-32.35-1-34.68-7-4.37-7.46,11.25-28.21,28.77-34.15,29-56.33-.09-63.09-45.79a4.06,4.06,0,0,0-7.7-1c-17,38-50.73,56.36-92.57,56.31s-75.58-18.26-92.58-56.31a4.05,4.05,0,0,0-7.7,1C184.76,321.31,162.52,348.38,129,320c-18.35-15.49-20.69-29.39-26.07-29.39-8.8,0,0,16.37-4.07,50.65-1.21,9.83-3.6,22.3-11.89,17-9.75-6.55-20.77-25.68-26.93-36.72a2,2,0,0,0-3.44,1.83c32.83,63.67,50.8,52.84,50.57-15.31,34.54,46.73,77,43,90.76-20.86,40.56,69.74,150.32,66.27,188.85,0,13.67,63.48,55.91,68,90.76,20.86-.22,68.94,18.08,78.33,50.58,15.31A2,2,0,0,0,527.31,320.66Z" transform="translate(-53.55 -35.89)"/><path class="cls-4" d="M97.56,294.59a5.36,5.36,0,1,0,5.35-5.36A5.36,5.36,0,0,0,97.56,294.59Z" transform="translate(-53.55 -35.89)"/><path class="cls-4" d="M394.34,274.81a5.72,5.72,0,1,1-5.72-5.72A5.73,5.73,0,0,1,394.34,274.81Z" transform="translate(-53.55 -35.89)"/><path class="cls-4" d="M190.35,274.81a5.73,5.73,0,1,0,5.72-5.72A5.73,5.73,0,0,0,190.35,274.81Z" transform="translate(-53.55 -35.89)"/><path class="cls-4" d="M487.14,294.59a5.36,5.36,0,1,1-5.36-5.36A5.36,5.36,0,0,1,487.14,294.59Z" transform="translate(-53.55 -35.89)"/></g></g></svg>