<svg width="286" height="55" viewBox="0 0 286 55" fill="none" xmlns="http://www.w3.org/2000/svg">
<path d="M20.96 42.08C17.08 42.08 13.56 41.3 10.4 39.74C7.28 38.14 4.8 35.78 2.96 32.66C1.12 29.54 0.2 25.72 0.2 21.2C0.2 17.76 0.76 14.74 1.88 12.14C3 9.54 4.52 7.36 6.44 5.6C8.4 3.84 10.64 2.52 13.16 1.64C15.72 0.759998 18.42 0.319998 21.26 0.319998C23.54 0.319998 25.64 0.579998 27.56 1.1C29.48 1.62 31.28 2.34 32.96 3.26L33.2 10.64H32.6L29.6 5.84C29.2 5.08 28.76 4.4 28.28 3.8C27.8 3.16 27.2 2.68 26.48 2.36C25.88 2.08 25.28 1.88 24.68 1.76C24.12 1.6 23.4 1.52 22.52 1.52C20.2 1.52 18.08 2.14 16.16 3.38C14.28 4.62 12.76 6.68 11.6 9.56C10.48 12.4 9.92 16.3 9.92 21.26C9.92 26.18 10.46 30.08 11.54 32.96C12.62 35.8 14.08 37.84 15.92 39.08C17.8 40.28 19.9 40.88 22.22 40.88C23.5 40.88 24.52 40.8 25.28 40.64C26.04 40.44 26.8 40.16 27.56 39.8C28.32 39.48 28.9 39.02 29.3 38.42C29.7 37.78 30.06 37.1 30.38 36.38L33.02 30.5H33.62L33.44 39.08C31.76 39.96 29.88 40.68 27.8 41.24C25.72 41.8 23.44 42.08 20.96 42.08ZM45.1123 41.9C42.7923 41.9 40.8323 41.24 39.2323 39.92C37.6723 38.6 36.8923 36.7 36.8923 34.22C36.8923 32.34 37.8523 30.62 39.7723 29.06C41.6923 27.46 44.7123 26.26 48.8323 25.46C49.4723 25.34 50.1923 25.22 50.9923 25.1C51.7923 24.94 52.6323 24.78 53.5123 24.62V19.88C53.5123 17.16 53.1723 15.26 52.4923 14.18C51.8523 13.06 50.8323 12.5 49.4323 12.5C48.4723 12.5 47.7123 12.82 47.1523 13.46C46.5923 14.06 46.2323 15.12 46.0723 16.64L45.9523 17.3C45.8723 19.02 45.4523 20.28 44.6923 21.08C43.9323 21.88 42.9923 22.28 41.8723 22.28C40.8323 22.28 39.9723 21.96 39.2923 21.32C38.6123 20.68 38.2723 19.82 38.2723 18.74C38.2723 17.1 38.8323 15.72 39.9523 14.6C41.1123 13.48 42.6323 12.64 44.5123 12.08C46.3923 11.52 48.4323 11.24 50.6323 11.24C54.1923 11.24 56.9323 12.12 58.8523 13.88C60.8123 15.6 61.7923 18.42 61.7923 22.34V35.6C61.7923 37.4 62.6323 38.3 64.3123 38.3H65.6323L66.1723 38.78C65.4123 39.74 64.5723 40.48 63.6523 41C62.7723 41.52 61.5123 41.78 59.8723 41.78C58.1123 41.78 56.7123 41.38 55.6723 40.58C54.6723 39.74 54.0123 38.64 53.6923 37.28C52.4923 38.56 51.2523 39.66 49.9723 40.58C48.7323 41.46 47.1123 41.9 45.1123 41.9ZM48.7723 38.24C49.5723 38.24 50.3123 38.06 50.9923 37.7C51.7123 37.3 52.5523 36.7 53.5123 35.9V25.82C53.1123 25.9 52.7123 25.98 52.3123 26.06C51.9123 26.14 51.4523 26.22 50.9323 26.3C49.0923 26.78 47.6123 27.6 46.4923 28.76C45.4123 29.88 44.8723 31.4 44.8723 33.32C44.8723 34.96 45.2523 36.2 46.0123 37.04C46.7723 37.84 47.6923 38.24 48.7723 38.24ZM66.2352 54.8V54.2L66.9552 53.96C68.4352 53.56 69.1752 52.6 69.1752 51.08V18.44C69.1752 17.56 69.0152 16.9 68.6952 16.46C68.4152 16.02 67.8752 15.72 67.0752 15.56L66.2352 15.38V14.78L76.4352 11.3L77.0352 11.9L77.5752 13.76C78.8952 12.96 80.3552 12.34 81.9552 11.9C83.5952 11.46 85.2752 11.24 86.9952 11.24C90.4352 11.24 93.1552 12.56 95.1552 15.2C97.1952 17.8 98.2152 21.54 98.2152 26.42C98.2152 31.22 97.0952 35 94.8552 37.76C92.6552 40.52 89.5352 41.9 85.4952 41.9C82.3352 41.9 79.6752 41.44 77.5152 40.52V50.9C77.5152 52.5 78.2352 53.5 79.6752 53.9L80.8152 54.2V54.8H66.2352ZM82.6152 40.16C84.6152 40.16 86.1952 39.12 87.3552 37.04C88.5552 34.96 89.1552 31.5 89.1552 26.66C89.1552 21.82 88.5952 18.44 87.4752 16.52C86.3552 14.56 84.7352 13.58 82.6152 13.58C81.1352 13.58 79.4952 14.06 77.6952 15.02V39.2C79.2152 39.84 80.8552 40.16 82.6152 40.16ZM112.088 41.9C109.528 41.9 107.528 41.26 106.088 39.98C104.688 38.7 103.988 36.66 103.988 33.86V13.34H99.8483V12.74L101.288 12.5C102.528 12.22 103.588 11.82 104.468 11.3C105.388 10.78 106.288 10.08 107.168 9.2L112.088 3.74H112.688L112.508 12.14H119.228V13.34H112.448V34.94C112.448 36.34 112.748 37.4 113.348 38.12C113.988 38.84 114.788 39.2 115.748 39.2C116.588 39.2 117.328 39 117.968 38.6C118.608 38.16 119.248 37.58 119.888 36.86L120.488 37.46C119.688 38.82 118.588 39.9 117.188 40.7C115.788 41.5 114.088 41.9 112.088 41.9ZM132.876 41.9C131.316 41.9 129.876 41.6 128.556 41C127.276 40.4 126.256 39.44 125.496 38.12C124.776 36.76 124.436 34.98 124.476 32.78L124.656 17.36C124.656 16.44 124.496 15.78 124.176 15.38C123.856 14.98 123.356 14.7 122.676 14.54L121.956 14.3V13.7L132.696 11.6L133.296 12.2L132.996 20.72V35.18C132.996 36.46 133.356 37.4 134.076 38C134.836 38.6 135.776 38.9 136.896 38.9C138.016 38.9 139.016 38.74 139.896 38.42C140.776 38.1 141.656 37.62 142.536 36.98L142.776 17.42C142.776 16.5 142.636 15.86 142.356 15.5C142.076 15.1 141.556 14.82 140.796 14.66L140.196 14.48V13.88L150.696 11.6L151.296 12.2L151.116 20.72V36.98C151.116 37.86 151.236 38.54 151.476 39.02C151.716 39.5 152.236 39.9 153.036 40.22L153.636 40.4V41L143.136 41.6L142.596 38.06C141.276 39.14 139.836 40.06 138.276 40.82C136.756 41.54 134.956 41.9 132.876 41.9ZM156.059 41V40.4L156.959 40.16C157.759 39.92 158.299 39.56 158.579 39.08C158.899 38.6 159.059 37.98 159.059 37.22V18.44C159.059 17.56 158.899 16.92 158.579 16.52C158.299 16.08 157.759 15.78 156.959 15.62L156.059 15.38V14.78L166.379 11.3L166.979 11.9L167.519 17.06V17.54C168.079 16.42 168.799 15.4 169.679 14.48C170.599 13.52 171.599 12.74 172.679 12.14C173.799 11.54 174.899 11.24 175.979 11.24C177.499 11.24 178.659 11.66 179.459 12.5C180.259 13.34 180.659 14.4 180.659 15.68C180.659 17.04 180.259 18.1 179.459 18.86C178.699 19.58 177.779 19.94 176.699 19.94C175.019 19.94 173.539 19.1 172.259 17.42L172.139 17.3C171.739 16.74 171.279 16.44 170.759 16.4C170.239 16.32 169.759 16.56 169.319 17.12C168.919 17.48 168.579 17.92 168.299 18.44C168.059 18.92 167.819 19.48 167.579 20.12V36.86C167.579 38.46 168.279 39.46 169.679 39.86L171.599 40.4V41H156.059ZM196.666 11.24C199.266 11.24 201.486 11.78 203.326 12.86C205.166 13.9 206.566 15.34 207.526 17.18C208.526 18.98 209.026 21.04 209.026 23.36C209.026 23.8 209.006 24.26 208.966 24.74C208.926 25.18 208.846 25.58 208.726 25.94H190.846C190.886 30.26 191.646 33.38 193.126 35.3C194.646 37.18 196.886 38.12 199.846 38.12C201.846 38.12 203.466 37.8 204.706 37.16C205.946 36.52 207.106 35.58 208.186 34.34L208.786 34.88C207.546 37.08 205.886 38.8 203.806 40.04C201.766 41.28 199.306 41.9 196.426 41.9C193.586 41.9 191.066 41.3 188.866 40.1C186.666 38.86 184.946 37.1 183.706 34.82C182.466 32.54 181.846 29.82 181.846 26.66C181.846 23.38 182.566 20.6 184.006 18.32C185.446 16 187.286 14.24 189.526 13.04C191.806 11.84 194.186 11.24 196.666 11.24ZM196.486 12.44C195.326 12.44 194.326 12.8 193.486 13.52C192.686 14.2 192.046 15.44 191.566 17.24C191.126 19 190.886 21.5 190.846 24.74H201.106C201.506 20.38 201.346 17.24 200.626 15.32C199.906 13.4 198.526 12.44 196.486 12.44Z" fill="#041E42"/>
<path d="M212.016 41V40.4L213.216 39.98C214.576 39.54 215.256 38.4 215.256 36.56V5.84C215.256 5.04 215.156 4.4 214.956 3.92C214.796 3.44 214.336 3.04 213.576 2.72L212.016 2V1.4H223.596L234.696 30.44L245.136 1.4H256.956V2L255.996 2.36C255.236 2.64 254.716 3.04 254.436 3.56C254.156 4.04 254.016 4.68 254.016 5.48V36.86C254.016 37.66 254.116 38.28 254.316 38.72C254.516 39.16 254.996 39.54 255.756 39.86L256.956 40.4V41H242.016V40.4L243.276 39.86C244.036 39.54 244.516 39.16 244.716 38.72C244.916 38.28 245.016 37.66 245.016 36.86V23.36L245.136 6.2L232.596 41H229.596L216.516 6.62L216.696 21.56V36.68C216.696 37.56 216.816 38.28 217.056 38.84C217.336 39.36 217.856 39.74 218.616 39.98L219.936 40.4V41H212.016ZM272.955 11.24C275.555 11.24 277.775 11.78 279.615 12.86C281.455 13.9 282.855 15.34 283.815 17.18C284.815 18.98 285.315 21.04 285.315 23.36C285.315 23.8 285.295 24.26 285.255 24.74C285.215 25.18 285.135 25.58 285.015 25.94H267.135C267.175 30.26 267.935 33.38 269.415 35.3C270.935 37.18 273.175 38.12 276.135 38.12C278.135 38.12 279.755 37.8 280.995 37.16C282.235 36.52 283.395 35.58 284.475 34.34L285.075 34.88C283.835 37.08 282.175 38.8 280.095 40.04C278.055 41.28 275.595 41.9 272.715 41.9C269.875 41.9 267.355 41.3 265.155 40.1C262.955 38.86 261.235 37.1 259.995 34.82C258.755 32.54 258.135 29.82 258.135 26.66C258.135 23.38 258.855 20.6 260.295 18.32C261.735 16 263.575 14.24 265.815 13.04C268.095 11.84 270.475 11.24 272.955 11.24ZM272.775 12.44C271.615 12.44 270.615 12.8 269.775 13.52C268.975 14.2 268.335 15.44 267.855 17.24C267.415 19 267.175 21.5 267.135 24.74H277.395C277.795 20.38 277.635 17.24 276.915 15.32C276.195 13.4 274.815 12.44 272.775 12.44Z" fill="#2EE59D"/>
</svg>
