<?xml version="1.0" encoding="utf-8"?>
<!-- Generator: Adobe Illustrator 26.0.0, SVG Export Plug-In . SVG Version: 6.00 Build 0)  -->
<svg version="1.1" xmlns="http://www.w3.org/2000/svg" xmlns:xlink="http://www.w3.org/1999/xlink" x="0px" y="0px"
	 viewBox="0 0 2500 2000" style="enable-background:new 0 0 2500 2000;" xml:space="preserve">
<style type="text/css">
	.st0{display:none;}
	.st1{display:inline;fill:#FFFFFF;}
	.st2{opacity:0.57;fill:#B8F4D5;}
	.st3{fill:#FFFFFF;}
	.st4{fill:#FFECE1;}
	.st5{fill:#FFB3A5;}
	.st6{fill:#005F5A;}
	.st7{fill:#2EE59C;}
	.st8{fill:#00DD84;}
</style>
<g id="BG">
	<g class="st0">
		<rect x="0" y="0" class="st1" width="2500" height="2000"/>
	</g>
	<circle class="st2" cx="1135.79" cy="875.9" r="740.17"/>
</g>
<g id="Layer_1">
	<g>
		<g>
			
				<ellipse transform="matrix(0.1578 -0.9875 0.9875 0.1578 -353.6982 1575.6447)" class="st3" cx="746.9" cy="995.18" rx="47.76" ry="47.76"/>
		</g>
		<g>
			<circle class="st3" cx="1505.18" cy="1046.58" r="133.82"/>
		</g>
		<g>
			
				<ellipse transform="matrix(0.2272 -0.9739 0.9739 0.2272 -43.9823 1076.4941)" class="st3" cx="656.25" cy="565.96" rx="26.65" ry="26.65"/>
		</g>
		<g>
			<circle class="st3" cx="1587.31" cy="665.35" r="78.53"/>
		</g>
		<g>
			<circle class="st3" cx="526.57" cy="832.26" r="78.53"/>
		</g>
		<g>
			<path class="st4" d="M1879.41,1432.84c-136.99-52.56-283.13-57.25-426.14-82.01c-70.18-12.15-132.45-37.86-190.42-79.3
				c-27.94-19.98-53.35-42.74-79.41-65.02c-21.02-17.97-43.58-35.41-70.48-43.39c-47.93-14.22-95.15,11.05-115.52,52.54
				c-19.79-22.66-45.15-40.13-77.19-34.46c-23.28,4.12-39.77,21.41-44.2,41.98c-29.97-14.47-56.55-35.68-92.68-30.86
				c-15.74,2.1-30.83,8.75-40.69,21.58c-5.03,6.54-7.92,13.91-9.86,21.87c-1.33,5.46-14.59,42.33-17.79,48.79
				c-26.19-6.97-49.98-18.09-71.2,0c-25.56,9.17-33.9,22-40.2,49.61c-10.04,44.04,11.62,88.82,29.69,127.76
				c35.92,77.39,85.38,149.45,157,197.7c38.69,26.07,81.8,44.87,124.15,64.08c42.88,19.45,86.28,38.58,131.7,51.35
				c46.7,13.13,93.87,16.83,142.21,15.65c50.54-1.24,101.28-2.89,151.25-11.09c28.66-4.71,57.79-11.68,87.02-8.23
				c27.58,3.25,53.65,15.31,78.89,26.13c57.1,24.47,114.16,49.02,171.24,73.53c4.57,1.96,8.94,1.76,12.82,0.44
				c16.29,11.6,33.99,20.58,53.53,26.82c5.81,1.86,12.25-0.29,16.52-4.37c53.16-50.67,81.4-119.44,98.06-189.78
				c19.7-83.22,28.87-169.71,34.17-254.93C1892.38,1441.26,1886.15,1435.43,1879.41,1432.84z"/>
			<path class="st5" d="M777.05,1182.74c-9.88,3.2-17.44,11.91-18.59,21.96c-8.01,2.15-14.9,7.81-16.98,17.18
				c-4.39,19.82-7.36,39.96-9.13,60.17c-1.17,13.31,12.55,26.05,25.47,25.47c1.34-0.06,2.39-0.6,3.64-0.82
				c8.33,10.98,20.1,14.95,32.39,20.17c12.51,5.31,25.04,10.6,37.59,15.86c19.26,8.1,31.28,40.42,53.64,37.82
				C762,1241.17,809.57,1172.22,777.05,1182.74z"/>
			<path class="st5" d="M1005.49,1337.48c-2.25-2.65-4.49-5.31-6.68-8.01c-1.09-1.35-2.18-2.71-3.26-4.07
				c-0.22-0.28-0.57-0.73-0.88-1.14c-4.17-5.51-8.2-11.12-12.08-16.85c-8.05-11.87-15.46-24.17-22.19-36.83
				c-3.27-6.14-6.37-12.36-9.31-18.67c-1.47-3.15-2.89-6.32-4.29-9.51c-0.18-0.4-0.28-0.63-0.37-0.83
				c-0.05-0.11-0.06-0.15-0.12-0.28c-0.66-1.61-1.31-3.22-1.96-4.83c-5.3-13.34-9.83-26.95-13.7-40.77
				c-3.59-12.83-18.21-22.04-31.34-17.8c-13.09,4.24-21.64,17.59-17.79,31.34c16.98,60.65,47.19,116.35,87.93,164.28
				c8.66,10.19,27.23,9.58,36.03,0C1015.45,1362.66,1014.73,1348.36,1005.49,1337.48z"/>
			<path class="st5" d="M1667.57,1858.51c-1.88-2.02-106.29-18.79-167.44-170.81c-5.47-13.6-7.44-31.93-19.14-41.69
				c-14.6-12.18-29.66-5.02-43.25,4.86c-33.47,24.34-44.46,43.98-102.66,67.28c-50.52,20.23-104.58,15.84-157.69,14.14
				c-60.65-1.94-121.94-7.9-178.96-30.01c-103.44-40.11-220.81-96.4-288.87-186.89c-46.27-61.51-73.77-137.9-72.24-214.85
				c0.1-5.18,0.1-11-3.56-14.68c-4.8-4.83-13.58-2.86-18.03,2.3c-4.45,5.15-5.66,12.28-6.46,19.04
				c-10.81,91.24,22.25,184.25,77.94,257.32c55.7,73.07,137.26,122.79,218.91,164.93c71.65,36.98,161.9,54.17,243.06,58.08
				c85.62,4.13,152.22-10.63,238.01-3.89c82.43,6.48,296.17,99.14,297.15,85.03C1684.85,1861.17,1672.84,1864.14,1667.57,1858.51z"
				/>
			<path class="st3" d="M1389.43,1371.78c-14.65-3.73-28.97-8.57-42.98-14.26c-10.25-4.46-20.32-9.29-30.08-14.75
				c-11.63-6.51-28.34-3.18-34.85,9.14c-6.35,12.02-3.28,27.9,9.14,34.85c26.72,14.95,55.55,26.59,85.23,34.14
				c12.89,3.28,28.24-4.2,31.33-17.79C1410.24,1389.87,1403.25,1375.29,1389.43,1371.78z"/>
			<path class="st3" d="M1451.29,1389.37c-32.78,0-32.84,50.95,0,50.95C1484.07,1440.32,1484.13,1389.37,1451.29,1389.37z"/>
			<path class="st6" d="M1350.11,1299.59c-41.46-21.51-81.4-45.73-119.43-72.86c-30.64-21.85-57.52-50.27-89.97-69.39
				c-63.76-37.57-134.15-3.06-151.91,66.83c-9.93,39.06-2.11,78.52,6.7,116.99c2.7,11.81,20.13,60.71,6.85,68.16
				c-5.89,3.31-20.33-3.27-26.52-4.96c-11.62-3.17-23.13-6.81-34.45-10.94c-41.74-15.24-79.44-37.8-115-64.2
				c-33.01-24.5-65.64-49.08-105.63-60.93c-53.24-15.79-112.83-4.81-130.86,54.1c-19.87,64.93,12.32,141.15,47.9,194.47
				c73.39,110.01,197.27,196.12,320.2,242.68c141.47,53.58,300.01,42.54,448.1,35.58c21.76-1.02,21.89-34.99,0-33.97
				c-127.06,5.97-260.81,15.55-385.24-17.17c-112.64-29.61-221.47-98.36-302.19-181.45c-49.69-51.14-95.45-117.6-99.82-191.07
				c-1.34-22.49,1.09-50.35,20-65.66c21.15-17.12,52.27-11.26,75.95-3.8c37.86,11.93,68.61,37.62,100.12,60.74
				c32.31,23.7,66.74,43.29,103.95,58.25c27.34,10.99,71.04,31.51,100.61,18.71c33.15-14.35,19.71-58.46,13.92-85.1
				c-9.22-42.45-23.65-86.73-9.38-129.73c12.84-38.69,50.26-61.57,89.56-43.58c34.81,15.93,62.85,47.88,93.66,70.23
				c39.91,28.96,81.98,54.7,125.75,77.41C1352.34,1338.97,1369.54,1309.67,1350.11,1299.59L1350.11,1299.59z"/>
			<path class="st6" d="M738.28,1277.06c-1.59-38.26,24.31-72.48,63.35-77.02c39.62-4.6,70.54,25.15,90.47,55.93
				c32.14,49.64,61.45,109.77,112.43,142.97c18.37,11.96,35.41-17.43,17.14-29.33c-30.17-19.64-51.56-54.06-70.76-83.67
				c-19.58-30.18-36.17-63.69-63.32-88.02c-32.59-29.19-76.65-41.16-118.17-24.12c-41.37,16.98-66.96,58.81-65.11,103.26
				C705.22,1298.84,739.19,1298.96,738.28,1277.06L738.28,1277.06z"/>
			<path class="st6" d="M897.89,1219.05c1.54-3.48,3.26-6.87,5.29-10.09c0.89-1.41,1.83-2.78,2.82-4.13
				c-2.38,3.26,1.19-1.27,1.72-1.83c0.9-0.97,1.84-1.91,2.8-2.81c0.66-0.62,5.13-4.04,1.51-1.47c2.38-1.69,4.8-3.27,7.41-4.6
				c0.73-0.37,1.46-0.73,2.21-1.07c-2.01,0.81-2.43,0.99-1.25,0.53c1.35-0.36,2.66-0.98,4-1.39c1.54-0.47,3.11-0.79,4.67-1.2
				c1.08-0.28,4.91-0.7,0.24-0.19c2.8-0.31,5.61-0.49,8.43-0.43c1.62,0.03,3.23,0.18,4.85,0.28c3.49,0.21-3.48-0.82,0.93,0.16
				c3.02,0.67,6.01,1.32,8.96,2.29c1.18,0.39,2.34,0.84,3.51,1.26c1.75,0.7,1.55,0.62-0.6-0.26c0.76,0.35,1.52,0.7,2.27,1.08
				c2.65,1.31,5.22,2.79,7.69,4.41c1.07,0.7,2.1,1.46,3.15,2.19c-3.62-2.53,0.9,0.79,1.57,1.38c2.28,2.01,4.43,4.16,6.45,6.44
				c0.57,0.64,3.91,5.2,1.48,1.7c0.76,1.1,1.54,2.17,2.27,3.29c1.73,2.66,3.13,5.47,4.63,8.26c0.79,1.75,0.78,1.66-0.04-0.28
				c0.35,0.86,0.69,1.73,1,2.6c0.65,1.77,1.2,3.57,1.73,5.38c2.55,8.81,11.96,14.32,20.89,11.86c8.78-2.41,14.42-12.05,11.86-20.89
				c-7.23-24.92-25.02-46.72-48.96-57.26c-23.28-10.25-50.67-11.11-72.85,2.66c-13.31,8.26-23.63,20.72-29.96,34.99
				c-3.72,8.38-2.44,18.25,6.09,23.24C881.89,1229.37,894.15,1227.48,897.89,1219.05L897.89,1219.05z"/>
			<path class="st6" d="M1410.99,1795.75c106.49,20.29,202.99,70.14,303.59,108.19c20.47,7.74,29.31-25.08,9.03-32.75
				c-100.6-38.05-197.09-87.9-303.59-108.19C1398.66,1758.92,1389.5,1791.65,1410.99,1795.75L1410.99,1795.75z"/>
			<path class="st6" d="M1348.12,1338.03c84.66,19.56,170.88,32.44,256.27,48.36c80.94,15.09,166.58,27.71,243.26,58.94
				c20.23,8.24,29.04-24.6,9.03-32.75c-76.68-31.23-162.32-43.85-243.26-58.94c-85.38-15.92-171.61-28.8-256.27-48.36
				C1335.88,1300.37,1326.8,1333.11,1348.12,1338.03L1348.12,1338.03z"/>
		</g>
		<g>
			<path class="st7" d="M1133.39,981.44c-68.55-12.12-178.15-57.87-223.49-110.69c-45.34-52.82-64.51-130.75-36.87-194.64
				s107.25-104.06,171.73-77.83c40.21,16.36,68.32,53.41,88.41,91.89c-2.53-50.49,37.58-98.32,87.01-108.94
				c49.43-10.62,103.22,13.88,131.65,55.68c28.44,41.8,32.24,97.94,14.26,145.23c-31.06,81.64-131.83,179.2-218.95,199.3"/>
			<path class="st8" d="M943.09,775.82c-17.16-46.97-34.59-125.19,2.83-172.76c-31.77,14.68-58.95,40.84-72.89,73.06
				c-27.64,63.88-8.47,141.82,36.87,194.64c45.34,52.82,154.95,98.57,223.49,110.69h13.76c4.4-1.02,8.85-2.36,13.31-3.76
				C1074.01,936.09,977.25,869.31,943.09,775.82z"/>
			<path class="st6" d="M1137.91,965.07c-111.87-20.76-254.2-86.08-260.48-216.45c-2.98-61.83,32.35-119.02,93.12-136.74
				c68.87-20.09,118.02,30.77,147.97,86.87c7.97,14.93,31.92,7.99,31.65-8.57c-1.04-62.31,60.16-106.03,119.2-91.21
				c59.5,14.94,93.69,72.21,90.49,131.59c-2.99,55.57-38.49,104.97-75.61,143.94c-38.56,40.49-86.53,76.93-141.6,90.57
				c-21.21,5.25-12.22,38.02,9.03,32.75c53.39-13.22,100.79-45.88,140.37-83.19c38.51-36.3,73.63-80.77,91.55-131.08
				c19.14-53.74,12.22-118.08-23.27-163.57c-32.2-41.28-86.49-65.14-138.7-56.22c-60.07,10.26-106.44,65.58-105.42,126.42
				c10.55-2.86,21.1-5.71,31.65-8.57c-26.9-50.38-67.72-99.02-127.62-107.1c-51.57-6.95-105.13,16.88-138.38,56.18
				c-38.29,45.26-46.56,107.93-31.06,164.12c15.38,55.74,50.86,99.68,98.72,130.96c53.36,34.87,116.69,60.42,179.38,72.05
				C1150.24,1001.78,1159.4,969.05,1137.91,965.07L1137.91,965.07z"/>
			<path class="st3" d="M1269.84,660.85c0.77,0.55,1.52,1.11,2.27,1.69c-1.15-0.89-2.29-1.77-3.44-2.66
				c5.42,4.22,10.25,9.08,14.45,14.5c-0.89-1.15-1.77-2.29-2.66-3.44c4.16,5.46,7.62,11.38,10.32,17.69
				c-0.57-1.35-1.14-2.7-1.71-4.06c1.55,3.71,2.83,7.51,3.83,11.4c2.21,8.61,12.27,14.65,20.89,11.86
				c8.89-2.88,14.22-11.67,11.86-20.89c-2.68-10.48-7.23-20.79-13.36-29.71c-7.01-10.19-15.3-18.5-25.32-25.72
				c-3.38-2.43-9.24-2.77-13.09-1.71c-3.94,1.08-8.21,4.13-10.15,7.8c-2.08,3.94-3.13,8.72-1.71,13.09
				C1263.47,655.13,1266.07,658.13,1269.84,660.85L1269.84,660.85z"/>
			<g>
				<path class="st3" d="M1317.74,757.92c21.86,0,21.89-33.97,0-33.97C1295.88,723.95,1295.85,757.92,1317.74,757.92L1317.74,757.92
					z"/>
			</g>
		</g>
	</g>
</g>
</svg>
